<svg width="201" height="201" viewBox="0 0 201 201" fill="none" xmlns="http://www.w3.org/2000/svg">
<path d="M155.23 55.6401H45.84C45.3595 55.6401 44.97 56.0296 44.97 56.5101V146.65C44.97 147.131 45.3595 147.52 45.84 147.52H155.23C155.71 147.52 156.1 147.131 156.1 146.65V56.5101C156.1 56.0296 155.71 55.6401 155.23 55.6401Z" fill="#D8F4E9"/>
<path d="M85.38 78V125.16L125.79 101.58L85.38 78Z" fill="#3EC791"/>
<rect width="111" height="92" transform="translate(45 56)" fill="#D8F4E9"/>
<path fill-rule="evenodd" clip-rule="evenodd" d="M64.1172 94.6675H59V131.538H64.1172C64.8596 131.538 65.4636 130.934 65.4636 130.192V96.0138C65.4636 95.2714 64.8596 94.6675 64.1172 94.6675Z" fill="#3EC791"/>
<path d="M73.7226 103.302H67.2585V122.904H73.7226V103.302Z" fill="#3EC791"/>
<path fill-rule="evenodd" clip-rule="evenodd" d="M83.8083 109.871H75.5172V116.335H87.2287C87.91 116.335 88.5505 116.07 89.0325 115.588L100.483 104.136L94.0782 101.401L86.8811 108.598C86.0603 109.419 84.969 109.871 83.8083 109.871Z" fill="#3EC791"/>
<path fill-rule="evenodd" clip-rule="evenodd" d="M123.015 99.3687L120.658 104.888C123.737 105.793 127.063 104.441 128.634 101.638C128.115 101.501 127.604 101.328 127.105 101.116L123.015 99.3687Z" fill="#3EC791"/>
<path fill-rule="evenodd" clip-rule="evenodd" d="M84.578 82.9561L81.0561 91.2051C80.7972 91.8116 80.7896 92.4823 81.0353 93.0942C81.281 93.7058 81.75 94.1853 82.3562 94.444L94.2077 99.5046C94.2106 99.5057 94.2132 99.507 94.2161 99.5083L102.392 102.999C102.394 103 102.396 103.001 102.398 103.002L114.602 108.213C115.854 108.748 117.307 108.164 117.842 106.913L121.364 98.664L84.578 82.9561Z" fill="#3EC791"/>
<path fill-rule="evenodd" clip-rule="evenodd" d="M127.81 99.4643C128.533 99.7724 129.288 99.9869 130.055 100.101C130.055 100.102 130.056 100.102 130.057 100.102C130.059 100.102 130.06 100.102 130.062 100.103C134.171 100.715 138.182 98.4704 139.817 94.6428L140.652 92.6868C140.682 92.6161 140.67 92.5543 140.654 92.5151C140.638 92.4756 140.605 92.4225 140.534 92.3921L88.5592 70.1995C87.9528 69.9408 87.282 69.9335 86.6703 70.1789C86.0586 70.4246 85.5792 70.8936 85.3204 71.5L82.7423 77.5369C82.2082 78.7886 82.7915 80.2415 84.0428 80.7756L127.81 99.4643Z" fill="#3EC791"/>
</svg>
